# xmcd
#
# Track frame offsets:
#	150
#	16359
#	28924
#	51547
#	62450
#	99944
#	146559
#	156318
#	167417
#	186547
#	193891
#	210733
#	224035
#	236412
#	248761
#	259843
#	290109
#	335913
#
# Disc length: 4724 seconds
#
# Revision: 1
# Processed by: cddbd v1.5.2PL0 Copyright (c) Steve Scherf et al.
# Submitted via: audiograbber 1.83.01
#
DISCID=22127212
DTITLE=Michael Mittermeier - Paranoid Live  CD 2
DYEAR=2007
DGENRE=Country
TTITLE0=Rentenschweine vs. Supernanny
TTITLE1=Junge Eltern
TTITLE2=Frankensteins Söhne
TTITLE3=Michl der Täufer 
TTITLE4=Der Katzentest 
TTITLE5=Waidmannsheil für Arschgeweihe - ( Swiss Austria Mix )
TTITLE6=Sackwaxing
TTITLE7=Jesus Christ Relaxerstar
TTITLE8=Ein unmoralisches Angebot
TTITLE9=Condoleezza Ice 
TTITLE10=Frauen-Täuschungsmanöver
TTITLE11=Bad Accent For President
TTITLE12=Amok Sepp and Massakerschorsch
TTITLE13=Gayland
TTITLE14=Terror in Pink
TTITLE15=Der Jüngste Tag 
TTITLE16=Fragestunde 
TTITLE17=Breathe 
EXTD=
EXTT0=
EXTT1=
EXTT2=
EXTT3=
EXTT4=
EXTT5=
EXTT6=
EXTT7=
EXTT8=
EXTT9=
EXTT10=
EXTT11=
EXTT12=
EXTT13=
EXTT14=
EXTT15=
EXTT16=
EXTT17=
PLAYORDER=
